<svg width="1920" height="1080" viewBox="0 0 1920 1080" fill="none" xmlns="http://www.w3.org/2000/svg">
<g clip-path="url(#clip0_16_402)">
<rect width="1920" height="1080" fill="#193C60"/>
<path d="M198 1040.5C117.488 1041.01 -5 1004.5 -5 1004.5V1082.5H1044.5C1053.7 1082.5 659 980.5 584.5 989C510 997.5 493.077 1017.48 432.5 1022.5C395.138 1025.6 373.938 1020.53 336.5 1022.5C282.033 1025.37 252.541 1040.15 198 1040.5Z" fill="#152E4D"/>
<path d="M636.723 855.874L610.025 1007.29L608.602 1015.36L631.167 1019.34L654.274 888.291C657.255 871.382 683.555 853.037 708.484 857.432C736.69 862.406 755.989 889.98 753.211 905.736L730.104 1036.78L753.97 1040.99L781.414 885.349L760.935 861.926L785.479 862.291L787.445 851.147L646.416 826.279L613.019 840.599L636.723 855.874Z" fill="#152E4D"/>
<path d="M553.964 891L387 903.343L389.036 924.501L413.47 922.738L425.687 1031H444.012C444.012 1031 436.275 977.751 435.46 952.713C434.646 927.675 451.945 915.451 475.776 912.159C499.289 908.91 517.72 922.033 520.978 939.312C524.236 956.592 528.308 1021.48 528.308 1021.48L545.412 1018.3L534.417 912.159L556 910.043L553.964 891Z" fill="#152E4D"/>
<path d="M335.134 1049.65L2.96907 1019.59L0 1054.47L332.165 1082.68L335.134 1049.65Z" fill="#152E4D"/>
<path d="M61.0313 874.36L49.7628 986.868L43.4242 1036.25H66.3135L82.512 878.239L106.81 882.824L93.0763 1036.25L115.261 1041.54L128.995 882.824L149.419 887.409L136.742 1041.54H157.166L169.491 887.409L211.396 891.289L199.775 1047.27H220.552L232.525 895.874H254.71L242.737 1047.27L263.161 1050L275.486 895.874H298.375L290.628 1047.27H311.246L321.969 895.874H360L199.775 801L23 869.775L61.0313 874.36Z" fill="#152E4D"/>
<path d="M357.863 393C-35.137 343.5 0.863105 288.5 0.863105 288.5V0H1926.36V277C1926.36 277 1700.83 209.453 1558.36 200.5C1084.48 170.719 750.863 442.5 357.863 393Z" fill="#2C5580"/>
<path d="M2069.84 777.376C2152.55 764.676 2265.41 775.86 2265.41 775.86L2316.71 1066.82L404.214 1404.04L362.977 1170.18C362.977 1170.18 426.202 1183.05 477.853 1174.41C529.503 1165.78 592.515 1107.57 666.58 1097.34C740.645 1087.1 903.703 1041.93 951.5 1033.5C999.297 1025.07 1105.93 937.449 1228 912.628C1350.07 887.807 1524.05 936.722 1577.19 925.469C1630.32 914.216 1644.1 896.717 1733.35 869.675C1822.61 842.633 1923.28 836.185 1923.28 836.185C1923.28 836.185 1987.13 790.076 2069.84 777.376Z" fill="#E5C37D"/>
<path d="M1767.02 977H2096V1227H154V1119.36C154 1119.36 226.682 1122.87 273.861 1119.36C321.04 1115.84 461.303 1090.36 525.058 1105.73C588.814 1121.11 678.71 1138.25 810.047 1136.49C941.383 1134.73 1058.06 1061.36 1147.31 1061.36C1236.57 1061.36 1208.52 1078.93 1309.25 1061.36C1409.99 1043.78 1638.23 977 1767.02 977Z" fill="#FAE3B2"/>
<path d="M1750.59 770.328C1752.04 753.707 1783.41 719 1783.41 719C1783.41 719 1768.74 759.39 1775.83 770.328C1786.01 786.024 1797.87 796.241 1801.92 814.505C1807.66 840.403 1772.69 861.326 1769.94 887.711C1767.7 909.315 1787.54 943.246 1787.54 943.246H1761.45C1761.45 943.246 1726.57 898.538 1728.29 876.351C1729.94 855.161 1766.33 835.748 1765.66 814.505C1765.15 798.281 1749.18 786.499 1750.59 770.328Z" fill="#80A330"/>
<path d="M1807.69 796.834C1810.38 781.921 1801.38 758.548 1801.38 758.548C1801.38 758.548 1835.22 776.541 1836.72 796.834C1837.9 812.742 1817.69 818.007 1819.47 833.858C1821.59 852.677 1846.1 849.44 1846.97 868.357C1847.9 888.23 1823.13 886.668 1819.47 906.223C1816.75 920.762 1824.04 943.246 1824.04 943.246H1801.38C1801.38 943.246 1781.96 921.009 1784.13 906.223C1786.83 887.787 1808.54 886.971 1807.69 868.357C1806.89 850.767 1785.12 851.438 1784.13 833.858C1783.16 816.747 1804.65 813.701 1807.69 796.834Z" fill="#8EB439"/>
<path d="M1801.96 833.858C1802.35 818.862 1820.47 800.2 1820.47 800.2C1820.47 800.2 1805.93 819.578 1806.16 833.858C1806.45 850.934 1828.84 854.664 1828.04 871.723C1827.3 887.521 1808.1 890.106 1806.16 905.802C1805.01 915.188 1809.53 929.783 1809.53 929.783C1809.53 929.783 1801.73 915.62 1801.96 905.802C1802.32 889.991 1823.09 887.521 1823.83 871.723C1824.63 854.664 1801.51 850.93 1801.96 833.858Z" fill="#5A7C3F"/>
<path d="M1785.02 816.188C1783.64 794.841 1761.88 766.542 1761.88 766.542C1761.88 766.542 1779.51 795.558 1779.97 816.188C1780.56 842.825 1750.06 852.234 1749.67 878.876C1749.35 901.32 1770.71 933.57 1770.71 933.57C1770.71 933.57 1752.2 900.76 1753.46 878.876C1755 852.276 1786.72 842.777 1785.02 816.188Z" fill="#5A7C3F"/>
<path d="M1701.29 851.108C1702.27 835.069 1726.11 818.291 1726.11 818.291C1726.11 818.291 1722.56 838.793 1726.11 851.108C1730.91 867.751 1753.73 868.709 1753.46 886.028C1753.24 900.746 1733.59 902.881 1732.85 917.582C1732.3 928.324 1741.68 943.667 1741.68 943.667H1716.44C1716.44 943.667 1695.31 928.899 1695.4 917.582C1695.54 901.802 1719.38 901.758 1720.65 886.028C1721.9 870.487 1700.34 866.67 1701.29 851.108Z" fill="#8EB439"/>
<path d="M1713.49 855.736C1713.89 851.126 1716.86 844.376 1716.86 844.376C1716.86 844.376 1716.24 851.343 1716.86 855.736C1718.9 870.319 1738.83 871.723 1738.74 886.449C1738.64 901.041 1715.87 902.182 1716.86 916.741C1717.35 924.017 1724.01 933.991 1724.01 933.991C1724.01 933.991 1714.74 924.531 1713.49 916.741C1711.22 902.612 1734.02 900.758 1734.11 886.449C1734.2 872.003 1712.25 870.128 1713.49 855.736Z" fill="#5A7C3F"/>
<path d="M1806.55 937.178C1817.81 938.174 1828.43 939.51 1831.82 951.415C1832.96 955.441 1835.82 956.782 1831.82 966.698C1827.82 976.614 1784.93 972.334 1775.21 966.698C1765.5 961.062 1775.92 953.415 1780.32 947.107C1786.92 937.627 1795.76 936.223 1806.55 937.178Z" fill="#979696"/>
<path d="M1752.97 930.696C1768.29 931.998 1782.73 933.742 1787.35 949.292C1788.9 954.55 1792.79 956.302 1787.35 969.253C1781.9 982.205 1723.56 976.614 1710.34 969.253C1697.12 961.892 1711.3 951.904 1717.28 943.665C1726.27 931.283 1738.28 929.448 1752.97 930.696Z" fill="#898989"/>
<path d="M1537.31 175.043C1475.88 166.166 1383.74 201.794 1369.06 231.972C1361 248.53 1357.94 260.754 1357.02 271.622C1356.6 276.574 1356.63 281.245 1356.83 285.916C1357 289.676 1357.28 293.437 1357.53 297.344C1358.79 316.758 1370.83 333.61 1388.03 350C1412.4 373.209 1436.44 370.936 1468.92 379.71C1501.77 388.58 1520.8 392.251 1554.73 394.839C1586.16 397.237 1605.93 404.688 1635.45 393.626C1659.06 384.782 1679.48 369.56 1687.57 355.539C1689.79 351.694 1691.36 348.404 1692.45 344.712C1693.53 341.02 1698.53 331.187 1698.76 325.15C1699.1 316.244 1699.76 309.923 1699.1 290.167C1697.57 244.493 1598.74 183.92 1537.31 175.043Z" fill="#E37EC4"/>
<path d="M1492.21 235.58C1488.33 246.506 1488.37 264.648 1488.37 264.648L1503.01 267.23C1503.01 267.23 1497.67 248.437 1500.38 237.021C1502.5 228.075 1510.47 220.27 1508.19 215.479C1505.92 210.689 1495.54 226.196 1492.21 235.58Z" fill="#DC68A6"/>
<path d="M1582.95 259.882C1582.76 273.698 1571.89 293.417 1571.89 293.417L1557.36 290.855C1557.36 290.855 1570.66 271.905 1572.31 258.006C1573.61 247.116 1568.12 235.162 1572.51 230.699C1576.89 226.237 1583.11 248.015 1582.95 259.882Z" fill="#DC68A6"/>
<path d="M1443.48 230.719C1437.77 240.806 1438 259.899 1438 259.899L1448.28 261.711C1448.28 261.711 1446.52 242.847 1451.17 232.074C1454.81 223.633 1462.94 218.38 1461.52 213.267C1460.11 208.153 1448.39 222.056 1443.48 230.719Z" fill="#DC68A6"/>
<path d="M1642.07 280.429C1643.99 291.863 1637.24 309.723 1637.24 309.723L1626.96 307.91C1626.96 307.91 1635.07 290.787 1634.38 279.074C1633.85 269.896 1628.01 262.181 1631.09 257.859C1634.16 253.537 1640.42 270.61 1642.07 280.429Z" fill="#DC68A6"/>
<path d="M1389.97 235.087C1383.88 243.601 1383.21 261.023 1383.21 261.023L1395.59 263.207C1395.59 263.207 1392.02 247.989 1397.1 238.725C1401.08 231.466 1409.66 226.145 1408.51 221.32C1407.37 216.495 1395.2 227.775 1389.97 235.087Z" fill="#DC68A6"/>
<path d="M1687.26 306.296C1690.07 316.379 1684.74 332.98 1684.74 332.98L1672.36 330.797C1672.36 330.797 1680.92 317.717 1679.32 307.275C1678.06 299.093 1671.82 291.16 1674.55 287.017C1677.27 282.874 1684.85 297.635 1687.26 306.296Z" fill="#DC68A6"/>
<path d="M1640.14 394.262C1663.74 385.417 1677.51 367.212 1685.49 357.917C1693.47 348.622 1696.39 338.61 1686.34 329.196C1676.3 319.783 1677.34 330.503 1659.63 327.382C1641.93 324.26 1647.34 310.647 1635.57 304.255C1622.94 297.389 1607.04 314.366 1593.25 310.29C1579.36 306.186 1581.99 293.826 1568.55 288.432C1552.56 282.015 1540.5 295.468 1525.04 287.866C1512.46 281.685 1512.24 266.679 1498.56 263.653C1486.7 261.029 1480.3 272.494 1468.28 270.751C1457.05 269.123 1454.02 256.805 1442.67 257.013C1430.92 257.229 1428.68 271.417 1417 272.735C1401.37 274.5 1396.52 249.282 1381.45 253.787C1367.1 258.077 1361.52 286.551 1361.52 286.551C1361.68 290.312 1358.43 298.725 1358.68 302.632C1359.94 322.046 1371.34 334.572 1388.55 350.962C1412.91 374.172 1441.12 371.572 1473.61 380.346C1506.46 389.216 1525.48 392.887 1559.41 395.475C1590.85 397.873 1610.61 405.323 1640.14 394.262Z" fill="#D34C94"/>
<path d="M1420.1 283.831C1404.45 285.492 1409.88 273.597 1396.23 279.623C1374.84 289.067 1380.16 310.7 1395.56 332.64C1413.83 358.652 1439.69 356.008 1470.03 365.493C1504.66 376.32 1525.35 378.848 1561.52 381.627C1588.93 383.731 1619.65 387.13 1631.92 381.805C1644.19 376.479 1673.04 355.621 1666.38 341.533C1662.88 334.135 1662.24 340.803 1649.62 338.578C1637.51 336.443 1635.34 322.286 1624.44 316.607C1612.1 310.185 1602.44 324.739 1588.98 321.24C1574.26 317.413 1579.14 305.667 1565.16 299.68C1549.8 293.103 1538.6 305.417 1523.27 298.769C1510.84 293.377 1508.75 280.72 1495.48 277.98C1484.52 275.718 1478.04 285.014 1467.16 282.4C1457.51 280.081 1455.8 269.191 1445.9 268.462C1434.2 267.602 1431.76 282.593 1420.1 283.831Z" fill="#742651"/>
<path d="M1442.4 310.186C1439.5 296.285 1455.47 273.769 1455.47 273.769C1455.47 273.769 1464.23 282.067 1468.84 282.067C1473.45 282.067 1481.75 280.223 1481.75 280.223C1481.75 280.223 1468.44 290.296 1467 303.733C1465.38 318.687 1485.06 317.819 1486.66 332.774C1488.98 354.471 1446.73 345.499 1442.4 366.887C1437.85 389.406 1482.63 395.484 1473.75 416.673C1464.74 438.162 1430.04 410.226 1415.21 428.197C1400.31 446.247 1431.57 471.388 1415.21 488.124C1398.47 505.247 1371.89 472.322 1353.9 488.124C1330.53 508.655 1373.02 526.279 1353.9 550.817C1331.34 579.766 1308.49 534.674 1275.53 550.817C1253.65 561.537 1250.18 579.729 1229.59 592.767C1221.16 598.108 1221.16 606.562 1211.45 608.901C1200.6 611.515 1193.51 605.52 1182.87 608.901C1170.07 612.971 1169.1 634.095 1156.14 630.567C1140.19 626.229 1152.12 600.096 1164.43 589.079C1178.12 576.835 1206.59 606.786 1211.45 589.079C1212.79 584.218 1211.45 576.171 1211.45 576.171C1215.85 568.318 1225.88 578.747 1234.5 576.171C1254.56 570.18 1245.98 543.228 1262.62 530.534C1284.65 513.736 1322.08 545.059 1332.69 519.471C1340.83 499.857 1307.3 487.369 1315.64 467.841C1327.23 440.69 1374.69 492.291 1391.24 467.841C1402.44 451.293 1379.38 432.755 1391.24 416.673C1401.53 402.707 1428.01 416.438 1432.26 399.616C1435.8 385.643 1414.57 381.286 1415.21 366.887C1416.2 344.658 1466.83 354.204 1460.84 332.774C1457.96 322.465 1445.31 324.088 1442.4 310.186Z" fill="#E3BAD7"/>
<path d="M1567.33 358.394C1561.9 345.235 1579.01 314.796 1579.01 314.796C1579.01 314.796 1587.57 322.993 1594.4 321.789C1601.24 320.585 1608.05 317.101 1608.05 317.101C1608.05 317.101 1595.55 336.601 1590.23 347.266C1584.91 357.93 1612.5 355.838 1616.76 370.273C1622.94 391.216 1577.55 390.109 1576.77 411.963C1575.96 434.973 1623.48 432.766 1617.94 455.258C1612.32 478.069 1571.47 456.905 1559.2 477.317C1546.88 497.818 1583.67 516.86 1569.61 536.334C1555.22 556.258 1521.92 528.697 1506 547.55C1485.32 572.044 1532.46 581.627 1516.89 609.29C1498.51 641.925 1466.97 601.7 1435.58 623.627C1414.74 638.187 1414.3 656.736 1395.21 673.342C1387.38 680.146 1388.86 688.47 1379.19 692.549C1368.39 697.109 1359.99 692.502 1349.54 697.778C1336.96 704.129 1339.63 725.108 1325.56 724.006C1308.27 722.65 1316.11 694.733 1326.97 681.63C1339.04 667.069 1373.78 691.356 1375.75 673.028C1376.29 667.997 1373.51 660.317 1373.51 660.317C1376.71 651.778 1388.92 660.215 1397.42 656.1C1417.19 646.531 1403.6 621.559 1418.67 606.013C1438.61 585.44 1482.87 609.441 1489.44 582.299C1494.48 561.495 1457.52 555.331 1462.78 534.574C1470.1 505.714 1528.29 547.85 1541.22 520.744C1549.96 502.398 1522.82 488.361 1532.33 470.353C1540.59 454.716 1570.44 463.395 1571.93 446.05C1573.17 431.643 1550.39 431.236 1548.56 416.938C1545.72 394.866 1590.31 394.599 1580.38 374.591C1575.6 364.965 1572.76 371.553 1567.33 358.394Z" fill="#E3BAD7"/>
<path d="M1521.39 297.74L1505.26 282.989C1505.26 282.989 1520.08 305.931 1492.52 317.843C1478.63 323.848 1475.94 314.126 1471.45 321.465C1460.48 339.371 1497.98 334.807 1492.52 352.471C1487.28 369.431 1459.68 354.001 1457.79 371.359C1455.83 389.469 1497.15 376.612 1492.52 394.444C1488.28 410.785 1457.88 393.221 1449.46 408.61C1440.97 424.106 1478.65 433.316 1464.74 446.385C1452.84 457.563 1453.63 445.073 1439.04 454.255C1416.25 468.598 1479.52 471.033 1464.74 490.457C1449.06 511.054 1439.04 482.637 1427.23 490.457C1416.12 497.816 1456.4 507.767 1427.23 521.412C1406.31 531.197 1412.21 511.85 1391.11 521.412C1365.52 533.007 1406.22 560.455 1377.91 567.582C1360.01 572.089 1358.46 554.783 1344.57 564.434C1329.85 574.662 1363.46 580.978 1350.13 592.241C1338.92 601.711 1338.78 595.844 1325.12 603.259C1302.54 615.52 1353.61 629.324 1332.07 642.608C1312.73 654.532 1306.91 631.315 1286.92 642.608C1264.89 655.054 1310.23 667.782 1286.92 678.81C1263.15 690.053 1263.97 650.039 1240.38 661.496C1224.05 669.427 1239.61 677.866 1220.23 678.81C1206.2 679.494 1201.58 667.152 1190.37 673.563C1164.67 688.254 1126.35 735.297 1164.67 732.85C1190.47 731.201 1186.83 700.233 1212.59 698.222C1241.63 695.956 1252.83 749.716 1271.64 732.85C1286.98 719.089 1237.49 699.234 1256.35 688.254C1272.56 678.82 1291.5 708.254 1307.06 698.222C1321.51 688.913 1296.32 673.322 1307.06 661.496C1322.72 644.264 1351.73 672.709 1359.16 652.577C1364.78 637.345 1343.32 641.822 1350.13 626.868C1358.51 608.461 1382.73 635.307 1391.11 616.9C1398.69 600.254 1368.57 608.368 1377.91 592.241C1387.48 575.722 1400.12 591.456 1416.12 578.075C1434.92 562.351 1394.41 554.242 1416.12 540.824C1430.81 531.741 1452.5 551.791 1464.74 540.824C1475.05 531.581 1457.76 520.746 1464.74 509.869C1474.43 494.781 1514.44 507.208 1515.45 490.457C1516.15 478.702 1490.58 477.472 1492.52 465.798C1494.58 453.477 1523.93 458.716 1525.87 446.385C1528.01 432.717 1493.44 435.473 1492.52 421.726C1491.55 407.245 1527.46 408.893 1525.87 394.444C1524.39 381.149 1490.79 384.636 1492.52 371.359C1494.12 359.125 1525.87 367.834 1525.87 355.54C1525.87 348.668 1514.74 343.582 1515.45 336.731C1516.78 323.869 1532.96 334.936 1541.15 323.615C1550.86 310.192 1556.61 296.261 1550.43 297.74C1530.72 302.458 1521.39 297.74 1521.39 297.74Z" fill="#DAA8CB"/>
<path d="M1403.47 371.82C1426.41 348.85 1429.41 279.945 1429.41 279.945L1433.34 274.23C1433.34 274.23 1427.11 356.434 1406.76 377.535C1389.71 395.203 1366.87 372.612 1354.24 395.997C1341.47 419.638 1368.08 443.117 1360.15 470.289C1347.75 512.716 1300.73 476.854 1278.74 511.61C1261.83 538.331 1277.1 576.994 1257.08 599.529C1233.85 625.672 1207.32 590.909 1179.61 607.442C1151.21 624.385 1129.06 682.173 1122.49 681.733C1115.93 681.293 1152.56 620.24 1182.39 602.167C1210.01 585.438 1234.73 620.785 1257.08 593.375C1275.91 570.282 1259.01 536.187 1274.47 508.973C1294.99 472.859 1343.33 509.8 1355.88 467.651C1364.04 440.249 1338 417.656 1350.95 393.799C1363.85 370.053 1385.91 389.404 1403.47 371.82Z" fill="#D34C94"/>
<path d="M1551.43 417.729C1583.46 385.56 1574.62 307.552 1574.62 307.552L1579.77 300.045C1579.77 300.045 1586.07 393.857 1557.79 423.207C1534.12 447.783 1493.25 428.905 1477.73 458.643C1462.05 488.706 1509.1 507.521 1501.82 540.181C1490.44 591.179 1408.42 564.23 1380.23 609.335C1358.55 644.011 1390.52 683.019 1363.06 713.883C1331.2 749.688 1280.44 714.365 1239.53 740.669C1197.61 767.626 1175.33 842.413 1164.78 843.765C1154.23 845.118 1195.61 764.279 1239.59 735.654C1280.29 709.16 1331.63 743.968 1361.84 706.991C1387.3 675.837 1353.64 642.402 1372.91 607.581C1398.47 561.371 1482.82 589.156 1494.5 538.426C1502.09 505.446 1456.12 487.463 1472.06 457.105C1487.93 426.886 1526.92 442.357 1551.43 417.729Z" fill="#D34C94"/>
<path d="M1617.75 433.927C1645.29 404.612 1636.88 332.722 1636.88 332.722L1641.29 325.86C1641.29 325.86 1647.63 412.274 1623.33 439.028C1602.97 461.43 1567.26 443.672 1554.05 470.903C1540.7 498.43 1581.78 516.188 1575.75 546.184C1566.34 593.022 1494.78 567.452 1470.69 608.709C1452.17 640.427 1480.32 676.633 1456.74 704.787C1429.38 737.45 1384.92 704.462 1349.6 728.294C1313.4 752.718 1294.74 821.354 1285.58 822.501C1276.42 823.648 1311.63 749.619 1349.6 723.679C1384.74 699.67 1429.7 732.189 1455.62 698.432C1477.45 669.991 1447.88 638.9 1464.31 607.026C1486.1 564.728 1559.69 591.089 1569.37 544.5C1575.66 514.212 1535.53 497.23 1549.11 469.433C1562.63 441.764 1596.66 456.369 1617.75 433.927Z" fill="#D34C94"/>
<path d="M1434.12 329.288C1437.06 301.488 1483.46 276.996 1483.46 276.996H1499.72C1499.72 276.996 1442.85 300.122 1439.73 329.288C1436.27 361.598 1487.45 360.197 1488.51 392.641C1489.76 430.81 1434.12 438.019 1421.79 461.023C1402.67 496.666 1447.95 525.216 1421.79 557.059C1395.16 589.467 1331.54 554.545 1329.83 585.216C1328.4 610.841 1356.18 607.842 1350.01 632.982C1337.92 682.268 1223.23 588.608 1214.88 638.513C1209.56 670.284 1249.48 669.796 1238.43 700.358C1224.39 739.211 1175.16 688.826 1135.82 709.409C1089.48 733.655 1097.69 816.506 1090.4 822.54C1083.11 828.574 1087.45 725.816 1135.82 700.358C1173.02 680.779 1215.6 736.443 1231.14 700.358C1244 670.504 1203.24 664.435 1209.83 632.982C1219 589.238 1349.09 677.672 1344.41 628.96C1341.99 603.876 1322.7 610.356 1324.22 585.216C1326.6 545.98 1388.03 583.284 1417.3 554.042C1447.87 523.501 1395.01 498.39 1413.94 461.023C1430.52 428.277 1483.15 428.604 1483.46 392.641C1483.74 361.419 1430.84 360.372 1434.12 329.288Z" fill="#D34C94"/>
<path d="M1519.01 362.122C1536.85 348.701 1532.92 294.513 1532.92 294.513L1524.91 288.981C1524.91 288.981 1535.13 343.544 1516.43 357.651C1495.72 373.28 1473.13 331.919 1450.25 344.003C1423.34 358.218 1443.97 405.447 1433.77 424.448C1417.97 453.89 1377.43 429.171 1367.49 462.715C1357.38 496.856 1410.77 533.666 1390.39 547.249C1373.36 558.598 1362.64 535.254 1348.13 550.189C1319.68 579.468 1437.11 633.585 1406.52 660.13C1387.04 677.03 1369 645.012 1352.99 665.997C1332.64 692.675 1358.81 708.857 1362.71 748.422C1367.31 795.03 1354.52 820.815 1353.72 829.031C1352.91 837.247 1371.59 797.064 1366.9 748.354C1363.28 710.891 1338.6 698.578 1356.35 671.809C1371.03 649.662 1393.98 679.737 1412.66 661.95C1438.63 637.211 1317.71 568.731 1353.49 553.057C1371.91 544.986 1376.32 562.951 1392.97 551.72C1418.96 534.192 1364.93 500.077 1371.64 465.089C1378.65 428.548 1420.31 460.682 1437.39 430.707C1452.36 404.439 1427.9 362.606 1452.58 348.026C1474 335.368 1499.07 377.127 1519.01 362.122Z" fill="#D34C94"/>
<path d="M1791.31 921.826C1814.16 923.848 1835.69 926.558 1842.57 950.714C1844.9 958.882 1850.69 961.604 1842.57 981.724C1834.45 1001.84 1747.44 993.159 1727.72 981.724C1708 970.289 1729.15 954.773 1738.07 941.973C1751.48 922.738 1769.4 919.888 1791.31 921.826Z" fill="#979696"/>
<path d="M1682.59 908.675C1713.68 911.316 1742.98 914.855 1752.33 946.406C1755.5 957.074 1763.38 960.63 1752.33 986.908C1741.28 1013.19 1622.91 1001.84 1596.08 986.908C1569.26 971.973 1598.03 951.707 1610.16 934.99C1628.4 909.865 1652.79 906.143 1682.59 908.675Z" fill="#898989"/>
<ellipse cx="1532.05" cy="978.698" rx="27.7343" ry="25.5452" fill="#EF7B3A"/>
<path d="M1537.35 969.338C1537.71 973.179 1534.94 976.254 1532.09 976.895C1529.24 977.537 1527.08 977.356 1526.55 977.144C1526.03 976.933 1524.4 976.036 1525.68 974.256C1526.96 972.475 1527.65 971.828 1529.48 972.426C1531.32 973.023 1530.24 971.113 1528.24 971.179C1526.24 971.246 1524.41 971.494 1523.32 975.459C1522.22 979.424 1530.69 979.747 1535.5 976.895C1539.97 974.246 1539.16 967.083 1539.06 966.859C1539.07 967.028 1539.06 967.068 1539.05 966.935C1539.05 966.865 1539.05 966.842 1539.06 966.859C1538.97 965.792 1537.73 959.561 1526.24 959.102C1512.95 958.57 1507.93 967.855 1510.32 977.542C1512.71 987.229 1521.69 994.289 1529.43 995.086C1537.17 995.883 1544.42 995.322 1551.58 984.576C1558.73 973.831 1553.26 968.652 1553.43 964.68C1553.61 960.708 1565.38 955.118 1572.68 954.719C1579.97 954.32 1590.32 951.407 1599.34 959.102C1608.37 966.797 1597.02 993.263 1594.56 996.915C1592.1 1000.57 1572.4 1028.49 1550.92 1027.43C1529.43 1026.37 1517.36 1024.66 1503.55 1011.78C1489.75 998.907 1491.22 980.605 1492.15 975.823C1493.08 971.042 1495.34 950.212 1520.81 946.626C1546.27 943.04 1550.92 963.484 1550.92 963.484C1550.92 963.484 1554.23 976.386 1549.59 983.78C1544.94 991.173 1533.94 994.825 1529.43 993.107L1529.42 993.101C1524.9 991.379 1514.7 987.491 1512.71 977.542C1510.72 967.581 1517.7 962.243 1526.24 961.231C1534.79 960.219 1536.98 965.496 1537.35 969.338Z" fill="#F89F42"/>
<path d="M1601.95 974.182L1554.76 971.655C1555.49 973.553 1555.77 974.638 1555.17 976.76C1555.17 976.76 1598.52 986.188 1599 985.622C1599.47 985.056 1601.95 974.182 1601.95 974.182Z" fill="#F29027"/>
<path d="M1589.06 1003.88L1553.34 981.099C1552.7 983.212 1551.75 984.439 1550.37 986.488C1550.37 986.488 1582.93 1010.3 1583.65 1009.93C1584.38 1009.56 1589.06 1003.88 1589.06 1003.88Z" fill="#F29027"/>
<path d="M1566.95 1023.48L1545.55 991.003C1544.41 992.489 1543.28 993.145 1541.55 994.314C1541.55 994.314 1553.78 1026.82 1554.78 1027.32C1555.78 1027.83 1567.16 1023.86 1566.95 1023.48Z" fill="#F29027"/>
<path d="M1527.93 1025.13L1533.62 995.166C1531.53 995.435 1530.05 995.228 1527.67 995.012C1527.67 995.012 1515.32 1019.45 1515.72 1020.43C1516.12 1021.4 1527.72 1025.7 1527.93 1025.13Z" fill="#F29027"/>
<path d="M1502.68 1011.18L1519.05 990.609C1517.35 989.91 1517.36 989.158 1515.71 987.921C1515.71 987.921 1495.82 1000.99 1495.79 1001.87C1495.75 1002.74 1502.31 1011.51 1502.68 1011.18Z" fill="#F29027"/>
<path d="M1491.98 987.775L1511.68 980.761C1510.97 978.65 1510.28 978.754 1509.99 976.256C1509.99 976.256 1492.55 975.538 1491.98 976.672C1491.42 977.806 1491.62 988.174 1491.98 987.775Z" fill="#F29027"/>
<path d="M1500.51 956.468L1512.21 964.759C1513.07 963.394 1513.79 963.577 1515.17 961.794C1515.17 961.794 1506.05 952.255 1505.45 952.522C1504.84 952.789 1500.51 956.468 1500.51 956.468Z" fill="#F29027"/>
<path d="M1524.76 946.273L1526.64 959.151C1528.44 959.086 1528.71 959.344 1530.71 959.508C1530.71 959.508 1532.29 947.461 1531.87 946.865C1531.44 946.269 1524.85 946.063 1524.76 946.273Z" fill="#F29027"/>
<path d="M1546.86 955.447L1536.76 962.119C1538.19 964.252 1538.16 964.726 1539.33 967.392C1539.33 967.392 1550.73 963.986 1550.95 963.153C1551.16 962.32 1547.14 955.469 1546.86 955.447Z" fill="#F29027"/>
</g>
<defs>
<clipPath id="clip0_16_402">
<rect width="1920" height="1080" fill="white"/>
</clipPath>
</defs>
</svg>
